<?xml version="1.0" encoding="UTF-8" standalone="no"?>
<svg
   id="svg8"
   width="1076.373mm"
   height="531.11902mm"
   version="1.1"
   viewBox="0 0 1076.373 531.11902"
   sodipodi:docname="Comisión_Federal_de_Electricidad_(logo)_.svg"
   inkscape:version="1.1 (c68e22c387, 2021-05-23)"
   xmlns:inkscape="http://www.inkscape.org/namespaces/inkscape"
   xmlns:sodipodi="http://sodipodi.sourceforge.net/DTD/sodipodi-0.dtd"
   xmlns="http://www.w3.org/2000/svg"
   xmlns:svg="http://www.w3.org/2000/svg">
  <defs
     id="defs7" />
  <sodipodi:namedview
     id="namedview5"
     pagecolor="#ffffff"
     bordercolor="#666666"
     borderopacity="1.0"
     inkscape:pageshadow="2"
     inkscape:pageopacity="0.0"
     inkscape:pagecheckerboard="0"
     inkscape:document-units="mm"
     showgrid="false"
     inkscape:zoom="0.069309373"
     inkscape:cx="2315.7041"
     inkscape:cy="1450.0203"
     inkscape:window-width="1920"
     inkscape:window-height="1017"
     inkscape:window-x="1912"
     inkscape:window-y="-8"
     inkscape:window-maximized="1"
     inkscape:current-layer="svg8" />
  <path
     d="m -454.04271,714.97401 c -12.92479,-5.6348 -14.44802,-21.5071 -5.80333,-60.4911 5.15042,-23.22679 14.33954,-40.32838 20.48746,-47.25331 5.82722,-6.56297 13.96935,-10.62967 26.9799,-10.67512 21.14718,-0.074 33.57937,8.77437 30.75867,28.68273 l -1.38352,9.7647 -22.07446,0.0893 1.48504,-8.07726 c 1.70745,-9.28676 -1.54376,-13.05453 -8.93343,-12.99222 -5.82488,0.0513 -12.30465,6.08011 -15.63993,12.58612 -2.93711,5.72988 -15.21038,53.23411 -15.21038,61.15083 0,7.12659 4.36212,14.74563 11.21756,14.74563 15.13561,-0.59485 15.86717,-15.25728 19.09763,-26.23661 l 21.42207,-0.25135 c -5.9942,35.70735 -30.62966,51.66981 -62.40431,38.95688 z m 74.51983,-2.98086 c -6.35207,-6.35208 -4.03196,-10.44642 -0.70496,-29.31094 3.65152,-20.70517 8.81982,-37.97022 14.62908,-45.01684 12.6653,-15.36578 43.78242,-16.46679 48.97814,-0.50081 3.66493,11.26301 -3.85787,57.67774 -12.38821,69.6855 -5.48226,7.71734 -17.1661,12.9651 -31.89633,12.9651 -11.72482,0 -13.48336,-2.68714 -18.61677,-7.82143 z m 32.84707,-12.44612 c 1.73303,-1.91504 5.80648,-14.96408 8.67028,-28.47455 5.54647,-26.16477 3.67534,-30.98884 -4.88344,-30.98884 -10.31887,0 -12.26286,3.70297 -19.12036,36.41619 -3.32686,15.8701 -3.69484,20.51311 -1.80626,22.78844 5.75165,6.63832 13.99355,5.54493 17.13971,0.25847 z m 200.03656,16.74534 c -8.0538,-2.94415 -11.63685,-8.89679 -11.63685,-19.33294 l 0.9544,-8.91877 20.36431,-0.003 c -1.64507,7.90207 -0.86989,16.40815 6.07697,17.16537 4.82758,0.46767 8.06259,-2.50052 10.53437,-6.2732 4.16119,-6.35083 0.12036,-11.34437 -13.38586,-21.76513 -12.32297,-9.5074 -14.98753,-14.93182 -13.6087,-27.16536 1.78756,-15.85983 16.48584,-25.09015 36.98576,-23.39025 14.835058,1.23024 19.959668,4.89041 19.959668,17.7921 l 0.0601,10.42515 -19.480268,-0.0645 0.022,-5.2331 c 0.0352,-8.47603 -11.06582,-11.89341 -15.89209,-4.21053 -3.78507,6.02536 -2.01385,8.67175 5.65291,15.67145 5.0203,4.58393 11.64198,8.83741 14.53671,11.42867 7.27511,6.51173 8.63876,15.59375 3.92355,26.13472 -4.39679,9.8292 -8.59185,15.53804 -17.72027,18.60357 -6.75656,2.26917 -22.1507,1.03504 -27.34788,-0.86498 z m 108.569068,0.44883 c -9.19439,-3.37428 -11.36636,-13.84254 -7.42632,-35.78726 5.93981,-33.08311 14.65986,-49.26621 28.640211,-53.14907 16.65738212,-4.62652 33.679799,-0.49553 37.338349,9.06098 2.45272,6.40749 1.10292,20.26315 -4.19234,43.03253 -6.9331486,29.81233 -16.08487672,39.1504 -38.07651,38.85059 -6.17608,-0.0843 -13.50315,-0.98761 -16.2828,-2.00762 z m 28.3580043,-17.97829 c 4.62696,-7.06165 12.6462393,-47.30389 10.53437922,-52.85953 -3.06684942,-8.06626 -15.15687252,-5.15232 -18.91291252,4.55849 -1.15042,2.9742 -4.026171,14.75297 -6.390561,26.17431 -3.52543,17.03048 -3.85214,21.30478 -1.81586,23.75823 3.87135,4.66464 13.050871,3.76162 16.5848143,-1.63158 z M 207.93909,694.68008 c 1.05439,-14.85632 8.75164,-44.97286 13.99428,-52.75104 7.2567,-10.76821 16.14278,-16.87728 31.23367,-16.15818 20.98518,0.99963 24.63934,7.35449 20.97126,34.46267 l -1.9366,15.90162 -42.66527,0.3133 c -0.0469,0.80003 -0.83969,5.36981 -1.76279,10.1554 -2.01811,10.4618 0.0161,17.71513 6.53642,17.71513 12.58466,0.65086 13.90558,-13.55079 15.03591,-16.45726 l 20.11948,-0.26081 c -0.42003,14.64741 -9.98534,21.98357 -17.49743,27.80383 -8.96789,7.28734 -28.79855,4.00901 -33.01347,0.52712 -10.28074,-6.28888 -11.38469,-11.55695 -11.01377,-21.252 z m 27.49669,-33.6864 20.11874,-0.20378 c 8.87553,-25.40242 -19.53745,-27.5568 -20.11874,0.20378 z m 48.63067,51.55767 c -5.22863,-6.64712 -3.13751,-10.93828 2.91937,-39.62467 7.27943,-34.47733 12.89473,-43.65414 27.94677,-45.6729 6.31424,-0.84687 9.24277,-0.18326 13.68347,3.09954 l 5.64975,4.17703 7.95778,-34.71997 19.45755,-0.24256 -24.64521,117.19684 -19.69285,0.0909 0.0293,-2.52441 c 0.044,-3.59829 0.46621,-3.41606 -5.83403,0.85956 -9.53966,6.47382 -19.78082,5.90294 -25.53217,-0.48234 z m 32.74592,-12.04955 c 2.97764,-3.2902 12.92845,-42.10524 12.92845,-50.42953 0,-9.64081 -13.35361,-10.30933 -17.21448,-0.86248 -2.86878,7.01934 -9.84239,38.88064 -9.8959,45.21475 -0.0784,9.20759 8.75971,14.18853 14.18193,6.07733 z m 49.16945,15.20158 c -6.6974,-2.69777 -10.67585,-10.51239 -10.59668,-20.81146 0.10922,-14.06831 7.38381,-44.58875 12.85295,-53.92022 6.79856,-11.60093 18.58671,-17.1441 34.0771,-16.0233 20.39876,1.47544 24.78594,10.47133 19.04558,39.05437 l -1.84906,12.89766 c -13.35948,-0.0557 -38.30522,0.23252 -41.1787,0.17681 l -2.1996,14.1856 c -0.88198,24.17606 20.65459,12.00336 21.56867,-4.42728 l 17.73347,-0.24022 c 0.852,0.70884 0.0931,2.88352 -0.51752,5.36879 -5.12066,26.25713 -29.54844,30.60327 -48.93635,23.73991 z m 37.76717,-54.83358 c 2.55388,-6.41086 1.78838,-18.34334 -4.28397,-19.95527 -9.31681,-2.33844 -15.97712,12.397 -15.0491,19.81013 z m 70.27559,38.77436 c -0.0367,-11.25421 6.66434,-21.58187 14.77349,-27.35595 3.23112,-2.30076 10.97932,-6.0777 17.63963,-8.76777 16.27547,-5.56942 20.40756,-12.06934 19.66426,-18.42838 -7.64916,-11.24101 -22.80676,0.39833 -22.64183,9.35347 L 485.06914,654.291 c 1.69697,-6.44568 2.15101,-10.8789 5.53181,-15.13633 13.90558,-17.85881 56.60747,-18.17695 57.06497,4.16566 -4.9146,24.5565 -11.2205,49.72802 -14.13067,73.39829 l -20.15099,0.16743 c -0.9591,0.008 0.22651,-2.41182 0.22651,-3.86197 0,-3.78449 0.42735,-3.52346 -6.37561,1.09331 -18.98474,10.37971 -33.00247,4.23208 -33.20992,-14.47148 z m 37.24379,0.53056 c 2.11618,-2.27144 5.70473,-10.09749 6.83023,-15.34598 3.2589,-15.19571 3.34657,-14.84532 -6.22878,-9.49347 -4.69777,2.62564 -10.86497,7.2526 -12.07887,8.71499 -3.62952,4.37333 -5.78133,11.2029 -4.1381,14.86438 2.52111,5.61699 11.02111,7.11105 15.61501,1.26001 z m 117.97385,14.07271 c -6.6375,-5.37472 -6.9083,-16.0167 -1.0729,-42.16388 8.3251,-37.30097 15.2932,-41.96524 26.7893,-45.2866 11.5973,-1.87399 16.8986,-0.88249 22.5503,8.31403 l 7.2789,-35.72128 19.4187,0.0925 -25.0542,117.10888 -19.1335,0.13649 0.066,-5.41182 c -7.0445,4.85677 -16.7578,15.14514 -31.8948,2.92963 z m 31.2711,-14.39744 c 3.0563,-3.37729 11.249,-42.51501 11.2872,-51.13764 0.037,-8.55446 -8.5413,-11.36783 -14.5199,-4.76117 -3.3804,3.73537 -10.7689,39.7764 -10.9566,49.88415 -0.1708,9.23252 8.1029,12.74006 14.1893,6.01459 z m 47.718,14.89444 c -7.1516,-4.02588 -9.2611,-8.61677 -9.2611,-20.15466 0,-9.77349 6.8851,-37.81189 10.8833,-47.7745 9.0375,-25.28294 56.8655,-31.46091 56.9982,-1.64199 0,5.6285 -0.9389,14.61149 -2.0864,19.96261 l -2.3927,10.81292 -41.0988,0.0139 -1.8139,9.39598 c -2.0701,10.72276 0.051,17.79137 6.7781,18.78756 12.0401,0.92926 13.7993,-12.66089 15.3277,-17.54654 l 20.3321,0.16171 c -0.7395,9.15774 -9.9223,24.08883 -17.1178,28.07505 -8.6241,4.77745 -28.4269,4.48086 -36.5488,-0.0909 z m 38.973,-53.52439 c 8.7348,-32.35594 -23.8301,-19.96773 -20.7147,0.1859 z m 183.4848,53.83812 c -9.819,-7.87127 -12.9571,-15.65752 -6.4875,-45.34523 7.4842,-34.34319 25.1964,-43.9063 43.4819,-44.45167 18.2854,-0.54494 30.71318,16.09953 17.504,50.86421 l -41.7783,-0.17431 -2.9217,13.24878 c -1.8786,8.51855 1.992,14.94795 8.627,15.13268 9.9238,0.2773 12.2834,-11.38909 13.0802,-16.13326 l 19.1753,-0.16721 c 0.4523,9.8402 -6.119,20.12241 -13.4152,25.35771 -8.9693,6.43527 -28.1769,8.95323 -37.2657,1.66786 z m 18.3367,-54.12766 19.7933,0.23207 c 8.1146,-36.32237 -25.3585,-16.06288 -19.7933,-0.23207 z m 52.17338,53.76335 c -9.5792,-5.20217 -10.4633,-13.39026 -4.4565,-41.28352 7.5223,-34.93328 16.8296,-44.07929 33.0318,-46.70867 17.6557,-2.86512 29.5411,3.82143 29.1372,17.33103 l -1.5749,14.21565 -20.0594,0.48321 1.6749,-8.30596 c 1.8136,-8.99355 -5.8481,-11.93813 -11.5965,-6.73589 -3.8768,3.50843 -10.6238,25.84518 -13.3566,46.44552 -1.1291,8.51194 0.4486,12.50256 3.3576,13.61823 11.4433,1.93945 14.1248,-13.66295 15.1012,-20.6949 l 18.8007,-0.26434 c -1.4142,15.70224 -9.5822,27.3149 -19.4106,33.55665 -7.3186,4.46269 -23.1059,2.43945 -30.6495,-1.65731 z m 68.7531,3.43124 c -11.7124,-1.67864 -12.7071,-6.03716 -4.1464,-45.32618 3.179,-14.59023 7.6287,-28.89238 7.0197,-28.93636 l -7.1949,-0.0818 2.0106,-14.93989 9.1709,-0.2224 4.4444,-23.83227 h 20.4207 l -5.9531,23.38072 9.8424,-0.19784 -2.8123,15.59008 -9.9252,0.17776 c -8.2913,49.8629 -20.5916,60.00877 -3.3091,58.54784 l -2.7659,13.86306 c -4.6592,2.56282 -10.0197,2.94972 -16.8025,1.97757 z m 124.2779,-2.28332 c -6.0364,-2.58811 -9.1768,-9.22665 -9.1768,-16.55621 0,-8.80809 9.503,-49.83725 12.8654,-56.29964 8.1916,-15.74475 25.9199,-21.13545 41.7014,-13.64609 7.6858,5.47882 11.197,9.02067 7.7745,29.52206 l -18.5889,-0.1167 c 5.7,-19.55724 -10.5227,-24.35639 -15.7052,-4.14712 -1.1224,4.37648 -7.8053,29.88417 -7.8771,39.36518 -0.098,12.79284 15.8906,15.48012 16.4008,-10.74329 l 21.5327,-0.23376 c -2.0596,25.58494 -21.8018,45.85322 -48.9261,32.85587 z m 99.4062,-1.82004 c -5.4038,-5.97111 -4.6217,-15.75135 -0.086,-38.1828 7.6924,-38.05012 15.9764,-47.30829 31.2066,-49.35124 9.9178,-0.90647 10.2375,0.81264 17.1932,8.58305 l 7.1012,-35.93753 21.1684,0.13671 -24.7485,117.37276 -20.0066,0.26287 0.453,-6.0431 c -8.2165,7.28573 -11.8707,8.29643 -21.3634,8.52074 -3.9757,0 -8.9291,-3.16259 -10.917,-5.35962 z m 32.0268,-13.29643 c 4.6825,-5.17409 14.5426,-50.28659 11.8788,-54.5367 -2.9937,-4.77671 -9.1013,-4.99582 -13.1938,-0.47353 -3.4884,3.85456 -14.3213,36.95644 -14.4034,46.82888 0.8886,12.91819 10.6546,13.39833 15.7184,8.18208 z m 39.4275,12.17416 c -3.9474,-4.32575 -4.9075,-13.60357 -0.6084,-25.89941 3.4288,-9.80648 11.0372,-14.89371 28.7047,-22.41899 15.9485,-6.79284 23.2539,-14.18633 19.0383,-19.26623 -14.9971,-9.15261 -19.9172,2.99927 -21.6259,9.86805 l -18.1381,-0.36651 c -0.5622,-0.90977 1.1021,-5.9709 3.4681,-10.66119 7.3786,-14.62835 25.4251,-21.96012 45.5981,-16.35757 13.4408,3.73267 11.9894,4.70752 3.4932,55.43173 l -5.7398,34.26622 -18.7143,0.0191 0.066,-6.00088 c -9.7508,4.98226 -23.2297,13.50315 -35.5417,1.38587 z m 34.5426,-12.13457 c 3.098,-4.72812 9.0074,-27.61398 7.6103,-29.01113 -1.3387,-1.33866 -21.9726,12.99955 -23.1601,16.09294 -1.6025,4.17614 -1.5541,13.49801 0.078,15.1312 5.2798,2.39576 12.8867,1.39958 15.4714,-2.21294 z m 43.2099,15.02564 c -6.846,-6.5137 -6.2607,-14.78814 -0.7542,-41.76805 6.0083,-29.43775 10.3226,-39.01845 18.597,-44.06389 14.1079,-7.80677 25.2566,-2.71581 30.0968,4.82047 l 6.5007,-35.19423 20.7572,-0.088 c -1.1053,3.23259 -25.4801,115.58417 -25.4801,117.57069 l -18.8792,-0.0433 0.8059,-6.92149 c 0.5556,-3.2139 -2.3779,0.67915 -7.7005,5.15767 -6.4642,5.4393 -17.5069,4.28471 -23.9422,0.53306 z m 30.9485,-15.42001 c 3.9381,-4.35156 10.0279,-26.28646 11.8546,-42.69974 0.6392,-7.28426 0.5417,-11.263 -1.8543,-13.25171 -11.2102,-6.00374 -15.8137,2.27085 -21.6361,30.98664 -3.2418,15.98665 -4.0898,23.23192 -2.4167,26.3583 4.4983,5.01187 11.359,1.45022 14.0529,-1.39364 z m -1786.24747,16.02916 18.57865,-88.09554 19.79547,0.0213 -0.41533,7.03064 c 12.02316,-9.01847 24.55944,-14.32707 38.83813,0.22138 7.06868,-8.4687 20.26534,-11.61266 29.46341,-8.36754 9.98973,3.85119 10.38043,7.75619 3.63077,39.49492 l -10.32693,49.01552 -19.07344,-0.12249 8.36387,-36.79004 c 8.55446,-31.02403 6.46408,-38.52219 -2.74652,-37.41752 -9.42016,1.12997 -14.41356,10.43102 -24.99045,63.17839 l -2.23619,11.15232 -18.84473,0.0815 c 0,-1.56714 3.44341,-17.18369 6.50711,-31.35022 8.38366,-38.76703 8.26711,-37.81336 5.04002,-40.49185 -4.16955,-3.46049 -11.89635,-3.59419 -15.98592,1.9396 -1.97097,2.66676 -5.33946,13.14029 -7.4857,23.2737 -3.28434,15.52264 -5.98666,31.62072 -9.32195,47.13236 z m 135.9844,-88.92387 20.03957,0.38338 -17.84781,88.08088 -20.77554,-0.0154 z m 86.394908,88.69663 19.39451,-87.53844 19.50666,0.0235 -18.81394,87.57509 z m 129.91491,-87.71437 20.49039,0.24865 c 1.58862,0.0191 0.0322,5.91921 0.0322,6.35009 4.29138,-7.92186 18.80515,-12.26066 27.995882,-7.59346 7.93066,4.24439 7.7496,9.20832 0.40163,48.27223 l -7.645502,40.64504 -19.93329,0.0848 6.30281,-33.71058 c 7.7342,-31.47484 7.81044,-39.16872 0.72087,-39.99485 -5.95272,-0.63099 -11.86996,2.77305 -20.57029,39.56896 l -5.84416,34.146 -19.90543,0.041 z m 92.742962,88.83591 23.41444,-116.94761 60.8305,-0.12491 -2.65379,14.52646 -40.51091,0.12557 -6.58363,31.30918 37.67774,0.61545 -2.4978,15.88402 -38.56911,-0.17607 -11.15085,54.23396 z m 294.09163,-0.28676 17.34716,-88.30813 19.21491,-0.19901 -1.33397,12.7855 c 4.71009,-4.98401 11.64565,-14.94648 22.8984,-14.07417 l -3.4506,23.17034 c -18.78975,1.80362 -24.03165,7.49157 -27.36254,22.22401 l -6.87421,44.13427 z m 123.11238,-0.29094 24.8123,-116.69838 20.7213,0.16838 -24.5997,116.49313 z m 254.0022,-0.49128 24.4656,-117.83457 61.8341,-0.62711 -3.7068,17.5722 -39.5939,0.49362 -5.6331,30.98371 36.3341,0.0579 -2.7825,16.85749 -37.2628,-0.13817 -7.3633,35.84076 37.7936,0.11773 -2.93,16.52616 z m 75.6414,-1.85237 24.4539,-115.98733 19.997,0.3833 -24.4861,115.98734 z m 216.13388,2.60475 17.7349,-88.90921 19.8168,-0.24952 c -5.0133,32.26945 -2.9794,2.44751 19.7097,0.53181 l -4.1422,22.94604 c -11.1626,0 -20.9999,4.07719 -26.0314,28.16155 l -5.8109,37.34788 z m 68.9415,-88.65998 19.6481,0.0899 -18.9019,86.94469 -19.1453,-0.20906 z m 86.4242,87.86831 17.0268,-87.17193 20.4178,0.24733 -18.6658,87.18659 z m -1423.98405,-98.83443 3.2817,-19.92449 h 19.67672 l -4.78133,19.85045 z m 108.385808,-18.93124 19.16654,0.22189 -4.6639,18.89605 -18.86746,-0.38301 z m 69.8526336,-2.05864 22.9453064,-0.12667 -26.5855364,21.52983 -16.0035126,0.0191 z m 1161.7792084,21.09514 3.0126,-18.1271 20.431,0.18553 -3.0005,17.9673 z m 108.9209,-17.43219 18.5692,-0.14726 -3.4896,16.69109 -19.7617,0.0161 z M 170.40062,529.38812 C 128.83049,525.188 94.96451,510.0999 65.679958,482.73222 -0.53537904,420.8491 -17.900121,315.08093 19.166268,199.46744 44.727758,119.75043 99.40374,54.547411 168.46249,21.443776 c 151.36337,-65.77918 269.82834,29.685516 291.11554,151.920464 0.6392,-0.59866 0.95689,-4.15188 1.32209,-6.04882 0.5615,-2.91621 7.38528,-39.55796 15.16419,-81.424966 L 490.20739,9.7652887 h 586.17471 c -8.9898,44.2405603 -16.694,82.7077753 -24.7558,122.1447913 l -169.31528,1.01011 -12.6155,67.39698 167.16748,1.45455 -18.9099,124.12397 -171.36778,0.002 -14.2017,76.82888 168.83878,-0.12528 -25.94118,125.98587 -295.0226,0.45733 36.414,-201.2094 H 560.19272 L 519.4311,525.416 394.97726,524.93 c -0.5549,-0.55491 22.24013,-124.44651 23.86306,-129.70233 -5.93688,7.92039 -35.25581,45.9214 -48.27735,59.93033 -43.671,45.68023 -89.84749,68.90042 -147.79351,74.32191 -23.59477,2.20657 -29.67086,2.19521 -52.3662,-0.0975 z m 69.82111,-16.2762 c 69.45386,-11.30479 132.30459,-61.62437 170.30486,-136.35091 5.81659,-11.4382 11.17431,-22.76058 11.90661,-25.16052 l 1.33081,-4.36388 h -96.40077 l -10.48526,14.66133 c -14.95162,20.90602 -33.84107,38.04353 -50.87302,46.15231 -54.3681,25.88622 -100.87959,20.97198 -134.01987,-14.15921 -26.99163,-28.61236 -36.05628,-64.47585 -29.68552,-117.44607 3.5409,-29.44141 6.72474,-42.54213 15.68098,-64.5213 13.78683,-33.8352 46.94837,-73.88942 72.3244,-87.35518 16.74681,-8.88579 45.52117,-15.89063 65.27779,-15.89063 29.76102,0 51.13691,8.70107 70.94997,28.88065 13.89312,14.15041 23.63509,30.7682 30.22576,51.5606 l 4.31814,13.62336 88.08821,-0.64023 c 2.36014,-2.36013 -5.05725,-37.31122 -12.28998,-57.90937 C 418.05283,90.586391 388.14887,54.433352 344.96021,33.072858 314.53213,18.021553 298.95964,14.642284 260.59579,14.7647 233.87904,14.849732 226.06128,15.566708 213.25598,19.104678 151.51579,36.163019 94.80566,80.528193 60.331258,138.7425 c -29.978,50.62012 -45.27047,103.7604 -47.44464,164.86578 -1.62109,45.56954 4.51085,78.75674 20.93901,113.32644 23.77949,50.03662 70.247732,86.68812 121.719632,95.99761 19.92815,3.60599 63.08163,3.6985 84.68695,0.18179 z m -74.66644,-12.85955 c -16.65664,-2.5247 -41.95863,-11.3495 -55.78138,-19.45535 -15.72642,-9.22225 -44.682582,-38.53538 -54.465592,-55.13705 -26.1098,-44.308 -34.70458,-94.52422 -26.38615,-154.17087 8.84034,-63.3807 30.78066,-113.89087 69.986772,-161.11999 32.49595,-39.145999 70.19349,-64.783724 111.25196,-75.663355 21.45652,-5.684867 68.99205,-6.248201 89.85482,-1.064873 39.956,9.927426 79.26986,35.455195 98.76846,64.138659 13.95103,20.519709 27.03708,52.745169 33.36973,82.172659 l 1.35632,6.30333 h -62.05978 l -3.30392,-10.18252 c -6.58466,-20.29321 -16.74827,-36.8157 -31.91319,-51.88093 -25.78653,-25.616468 -48.20552,-33.970078 -87.28188,-32.523077 -39.4033,1.45917 -67.85586,14.952347 -98.21869,46.577457 -42.70853,44.48612 -64.698702,100.96022 -64.698702,166.14858 0,35.56662 6.297762,58.82932 22.740062,83.99791 22.70707,34.75881 59.97945,53.62701 101.38538,51.32309 42.07885,-2.34115 75.95657,-20.3753 108.0926,-57.54285 l 15.0667,-17.42559 66.96816,-0.0586 -5.69865,11.28866 c -29.85045,59.1328 -86.0284,106.26003 -143.90112,120.70805 -18.95469,4.73229 -64.7764,6.65232 -85.12677,3.56722 z m 343.28528,10.12974 c 11.96672,-73.06769 30.46985,-135.90376 39.30065,-196.01955 l 171.8882,-1.58525 16.763,-94.7368 -170.1876,-1.17299 18.597,-100.57905 168.9854,0.50726 18.3426,-91.042324 -270.44412,-1.441796 -90.11871,485.35382 96.87725,0.71617 c 7e-5,0 0,1.5e-4 0,1.5e-4 z M 429.32148,491.52785 C 460.23335,332.89283 484.935,188.99904 513.94979,41.117569 l 238.69653,-0.318869 -12.2672,59.154055 -171.1479,1.010115 -25.497,131.74015 171.8516,0.10409 -8.9173,62.06345 H 534.47243 l -40.36429,196.37141 c -21.5958,0.0808 -43.1916,0.21287 -64.78813,0.28441 1.17446,-4.71228 0,8e-5 0,8e-5 z m 551.98624,-73.52291 -167.1528,0.13906 20.593,-105.82021 h 170.52478 c 3.1785,-34.88564 13.6504,-66.2168 13.6504,-96.97254 H 852.22482 l 18.3404,-97.94014 169.63048,-1.01012 17.8786,-90.749108 -271.33838,-0.262425 -90.0747,486.731913 c 88.9385,-0.33206 177.8697,-0.66485 266.8082,-0.99692 z m -182.6564,-377.209905 240.99088,1.940771 -13.031,60.082804 -169.35928,1.01011 c -9.1687,44.70604 -18.9715,90.18468 -26.7702,128.97663 l 169.04398,1.00183 -9.9971,61.02109 -171.24308,1.01011 -28.734,137.01797 173.1563,-0.18634 c -3.8084,21.24394 -7.5333,39.63273 -12.3743,61.96303 H 712.41402 Z M 234.12292,406.21782 c 31.32311,-8.08092 58.50093,-29.37838 79.92959,-62.63302 l 7.62791,-11.8377 108.75966,-0.0293 10.18472,-55.76013 c 5.6016,-30.66777 10.15027,-56.41472 10.10849,-57.21445 l -100.21987,-0.2518 -2.57037,-14.13428 c -4.93695,-27.1485 -25.56442,-57.15582 -46.88606,-69.89881 -20.67291,-12.35449 -42.00189,-14.83873 -72.81554,-8.47969 -25.88695,5.34225 -41.33776,14.12622 -61.16548,34.77347 -19.00234,19.78742 -28.96862,34.28822 -37.40946,54.42675 -22.90352,54.64738 -23.27956,118.61891 -0.90206,153.48915 11.82524,18.42837 32.55239,34.44508 49.8475,38.51999 18.26418,3.40229 37.8632,3.24227 55.51016,-0.96884 z m 518.9926,-274.27051 h -156.348 l -12.2988,68.38877 155.8715,0.46328 z"
     fill="#008e5a"
     id="path2"
     style="stroke-width:7.3303" />
</svg>
